<?xml version="1.0" encoding="utf-8"?>
<!-- Generator: Adobe Illustrator 25.2.3, SVG Export Plug-In . SVG Version: 6.00 Build 0)  -->
<svg version="1.1" id="Capa_1" xmlns="http://www.w3.org/2000/svg" x="0px" y="0px"
     viewBox="0 0 400 200" style="enable-background:new 0 0 400 200;" xml:space="preserve">
<style type="text/css">
	.st0{fill:#53B57C;}
	.st1{fill:#3C3C3B;}
</style>
    <path class="st0" d="M218.64,19.67l-42.74,156.7c-1.31,4.79,2.3,9.51,7.27,9.51h0c3.4,0,6.37-2.27,7.27-5.55l42.74-156.7
	c1.31-4.79-2.3-9.51-7.27-9.51h0C222.51,14.12,219.53,16.39,218.64,19.67z"/>
    <path class="st0" d="M63.7,29.65c-3.45-2.52-8.3-1.8-10.86,1.62L4.77,95.36l0,0c-2.03,2.76-2.03,6.51,0,9.27l0,0l48.07,64.09
	c2.57,3.42,7.41,4.14,10.86,1.62l0.06-0.05c3.52-2.57,4.25-7.52,1.64-11l-41.01-54.61c-2.09-2.78-2.09-6.6,0-9.39L65.4,40.7
	c2.62-3.48,1.88-8.43-1.64-11L63.7,29.65z"/>
    <path class="st0" d="M336.3,29.65l-0.06,0.05c-3.52,2.57-4.25,7.52-1.64,11l41.01,54.61c2.09,2.78,2.09,6.6,0,9.39L334.6,159.3
	c-2.62,3.48-1.88,8.43,1.64,11l0.06,0.05c3.45,2.52,8.3,1.8,10.86-1.62l48.07-64.09v0c2.03-2.76,2.03-6.51,0-9.27v0l-48.07-64.09
	C344.6,27.85,339.76,27.13,336.3,29.65z"/>
    <g>
	<path class="st1" d="M108.23,63.21H96.26c-3.33,0-5.67-0.45-7.01-1.35c-1.34-0.9-2.01-2.42-2.01-4.55c0-2.24,0.59-3.78,1.76-4.63
		c1.17-0.85,4.38-1.27,9.63-1.27h23.35c3,0,5.04,0.4,6.1,1.19c1.07,0.79,2.03,2.25,2.91,4.38l32.04,80.06h1.39
		c2.95,0,4.97,0.41,6.06,1.23c1.09,0.82,1.64,2.29,1.64,4.43c0,2.24-0.52,3.78-1.56,4.63c-1.04,0.85-2.98,1.27-5.82,1.27h-22.29
		c-4.15,0-6.82-0.42-7.99-1.27s-1.76-2.39-1.76-4.63c0-2.08,0.64-3.54,1.93-4.38c1.28-0.85,3.7-1.27,7.25-1.27h7.62l-7.95-19.5
		H99.95l-7.05,19.5h7.95c3.61,0,6.06,0.42,7.38,1.27c1.31,0.85,1.97,2.31,1.97,4.38c0,2.24-0.59,3.78-1.76,4.63
		s-3.76,1.27-7.74,1.27H79.14c-3.5,0-5.82-0.42-6.97-1.27c-1.15-0.85-1.72-2.39-1.72-4.63c0-2.13,0.57-3.61,1.72-4.43
		c1.15-0.82,3.36-1.23,6.64-1.23h1.56L108.23,63.21z M104.05,106.64h33.52l-17.62-43.43L104.05,106.64z"/>
</g>
    <g>
	<path class="st1" d="M266.58,137.04h5.57c3.17,0,5.41,0.44,6.72,1.31c1.31,0.87,1.97,2.32,1.97,4.34c0,2.19-0.57,3.72-1.72,4.59
		c-1.15,0.87-3.31,1.31-6.47,1.31h-27.53c-1.86,0-3.28-0.5-4.26-1.52c-0.98-1.01-1.48-2.47-1.48-4.38c0-2.02,0.55-3.47,1.64-4.34
		c1.09-0.87,2.9-1.31,5.41-1.31h2.7h4.75V62.47h-4.75c-4.1,0-6.75-0.38-7.95-1.15c-1.2-0.76-1.8-2.21-1.8-4.34
		c0-1.86,0.48-3.25,1.44-4.18c0.95-0.93,2.39-1.39,4.3-1.39h34.58c8.36,0,14.6,0.4,18.73,1.19c4.12,0.79,7.61,2.14,10.45,4.06
		c3.66,2.46,6.54,5.71,8.65,9.75c2.1,4.04,3.15,8.39,3.15,13.03c0,6.28-1.93,11.68-5.78,16.18c-3.85,4.51-9.22,7.64-16.1,9.38
		c1.42,0.82,2.69,1.78,3.81,2.87c1.12,1.09,2.2,2.4,3.24,3.93l16.47,25.24H325c3.06,0,5.16,0.42,6.31,1.27
		c1.15,0.85,1.72,2.31,1.72,4.38c0,1.91-0.48,3.37-1.43,4.38c-0.96,1.01-2.36,1.52-4.22,1.52h-9.26c-2.68,0-5.3-1.97-7.87-5.9
		c-0.33-0.33-0.57-0.6-0.74-0.82l-15.73-23.85c-3.22-4.86-5.89-8-7.99-9.42c-2.1-1.42-4.88-2.13-8.32-2.13h-10.9V137.04z
		 M266.58,62.47v33.11h16.96c7.65,0,13.4-1.38,17.25-4.14c3.85-2.76,5.78-6.87,5.78-12.33c0-5.52-1.88-9.67-5.65-12.46
		c-3.77-2.79-9.4-4.18-16.88-4.18H266.58z"/>
</g>
</svg>
