<svg xmlns="http://www.w3.org/2000/svg" width="48" height="48"><defs><style>.cls-1{fill:#b06550}.cls-2{fill:#c8785c}</style></defs><g id="Business_case" data-name="Business case"><path d="M2 21h44v24a2 2 0 0 1-2 2H4a2 2 0 0 1-2-2V21Z" class="cls-1"/><path d="M48 25c-7 8-39 8-48 0V11h48Z" class="cls-2"/><path d="M48 25c-7 8-39 8-48 0V11h48Z" class="cls-2"/><rect width="8" height="6" x="20" y="28" rx="1" ry="1" style="fill:#ecf0f1"/><path d="m13.936 8.068-4-.118A6.958 6.958 0 0 1 17.062 1h14a6.8 6.8 0 0 1 7 7h-4a2.824 2.824 0 0 0-3-3h-14a2.971 2.971 0 0 0-3.126 3.068Z" style="fill:#4c5665"/><path d="M47 8v3H0V9a1 1 0 0 1 1-1Z" class="cls-2"/><path d="M47 8a1 1 0 0 1 1 1v2h-2V9a1 1 0 0 1 1-1Z" class="cls-2"/><rect width="18" height="7" x="15" y="15" class="cls-1" rx="1" ry="1"/></g></svg>