<svg xmlns="http://www.w3.org/2000/svg" xml:space="preserve" width="91" height="91"><path fill="#F69B77" d="M4.468 49.624c-1.553 2.082-2.527 4.79-2.055 8.26C5.127 77.894 51.56 85.653 51.56 85.653S91.071 94.3 87.639 65.567"/><path fill="#434B56" d="M63.869 89.108c-6.575 0-11.988-1.109-12.729-1.269-2.615-.44-48.057-8.431-50.933-29.657-.503-3.685.33-7.012 2.475-9.891a2.227 2.227 0 0 1 3.119-.455 2.227 2.227 0 0 1 .455 3.119c-1.443 1.936-1.977 4.103-1.634 6.628 2.042 15.067 34.84 23.784 47.308 25.87l.106.021c.202.044 20.444 4.335 29.389-3.793 3.433-3.121 4.742-7.65 4.001-13.849a2.231 2.231 0 0 1 1.95-2.478 2.236 2.236 0 0 1 2.476 1.95c.911 7.628-.918 13.577-5.438 17.68-5.385 4.891-13.609 6.124-20.545 6.124z"/><path fill="#B08C7E" d="M30.214 36.404S2.875 34.222 4.539 51.549C6.203 68.87 43.721 75.348 43.721 75.348S84.973 85.08 88.28 62.853c3.307-22.225-21.267-28.195-21.267-28.195s-7.675-2.872-22.117-.113c-9.236 1.767-13.056 1.932-14.682 1.859z"/><path fill="#434B56" d="M62.637 79.697c-9.726 0-18.44-1.954-19.359-2.167-2.353-.412-39.17-7.175-40.957-25.769-.413-4.299.701-7.933 3.311-10.804 5.431-5.978 15.939-6.87 21.722-6.87 1.821 0 2.99.09 3.038.094.081.002.265.008.476.008 1.841 0 5.696-.318 13.61-1.833 4.3-.821 8.44-1.237 12.31-1.237 6.427 0 10.155 1.159 10.881 1.407 1.997.536 26.253 7.561 22.816 30.654-1.123 7.534-6.864 16.517-27.848 16.517zM27.353 38.543c-4.061 0-13.986.527-18.423 5.412-1.754 1.928-2.464 4.343-2.172 7.38C7.988 64.142 34.131 71.424 44.1 73.151c.044.006.088.016.133.025.086.021 8.875 2.063 18.404 2.063 14.297 0 22.183-4.277 23.438-12.716 2.965-19.914-18.669-25.475-19.59-25.701a2.203 2.203 0 0 1-.251-.077c-.023-.007-3.295-1.168-9.447-1.168-3.591 0-7.45.39-11.472 1.157-6.629 1.269-11.49 1.912-14.447 1.912-.288 0-.537-.006-.752-.016-.088-.006-1.136-.087-2.763-.087z"/><path fill="#434B56" d="M28.23 60.845c-1.601 0-3.33-.339-5-.982-5.358-2.064-8.543-6.425-7.411-10.143.766-2.516 3.364-4.08 6.782-4.08 1.602 0 3.331.339 5.001.981 5.364 2.068 8.549 6.431 7.412 10.146-.77 2.513-3.37 4.078-6.784 4.078zm-5.628-10.749c-1.468 0-2.378.465-2.518.924-.309 1.017 1.426 3.404 4.75 4.685 1.164.447 2.338.683 3.397.683 1.47 0 2.381-.464 2.523-.926.309-1.015-1.428-3.397-4.751-4.68-1.166-.45-2.342-.686-3.401-.686zM39.689 49.529a2.231 2.231 0 0 1-2.083-1.433l-2.479-6.495a2.227 2.227 0 1 1 4.163-1.588l2.479 6.491a2.23 2.23 0 0 1-2.08 3.025zM46.179 63.025a2.232 2.232 0 0 1-2.021-1.29l-3.165-6.796a2.228 2.228 0 1 1 4.04-1.88l3.165 6.795a2.23 2.23 0 0 1-2.019 3.171zM50.578 73.503a2.233 2.233 0 0 1-2.081-1.429l-1.776-4.612a2.23 2.23 0 0 1 4.158-1.603l1.777 4.613a2.229 2.229 0 0 1-2.078 3.031zM54.002 53.393a2.23 2.23 0 0 1-2.06-1.376l-4.955-11.971a2.228 2.228 0 1 1 4.118-1.704l4.955 11.972a2.228 2.228 0 0 1-2.058 3.079zM62.192 72.598a2.231 2.231 0 0 1-2.067-1.396L54.69 57.756a2.229 2.229 0 1 1 4.131-1.671l5.435 13.447a2.226 2.226 0 0 1-1.23 2.901c-.274.11-.555.165-.834.165zM66.116 48.97c-.859 0-1.68-.501-2.043-1.34l-3.19-7.338a2.231 2.231 0 0 1 1.155-2.932 2.23 2.23 0 0 1 2.933 1.155l3.189 7.338a2.229 2.229 0 0 1-2.044 3.117zM71.702 61.033a2.23 2.23 0 0 1-2.046-1.34L67.03 53.65a2.23 2.23 0 0 1 4.088-1.778l2.626 6.043a2.23 2.23 0 0 1-2.042 3.118zM76.039 71.626a2.228 2.228 0 0 1-2.066-1.394l-1.41-3.484a2.228 2.228 0 1 1 4.131-1.672l1.41 3.485a2.227 2.227 0 0 1-2.065 3.065zM79.86 56.184a2.23 2.23 0 0 1-2.082-1.431l-1.695-4.413a2.231 2.231 0 0 1 1.281-2.881 2.232 2.232 0 0 1 2.881 1.282l1.693 4.413a2.23 2.23 0 0 1-2.078 3.03zM37.827 68.916a2.232 2.232 0 0 1-2.081-1.43l-1.773-4.609a2.228 2.228 0 1 1 4.158-1.601l1.775 4.609a2.229 2.229 0 0 1-2.079 3.031zM29.189 46.463a2.23 2.23 0 0 1-2.144-1.623l-.706-2.493a2.229 2.229 0 0 1 4.288-1.213l.707 2.493a2.227 2.227 0 0 1-2.145 2.836zM37.177 29.57a2.229 2.229 0 0 1-1.394-3.968c2.754-2.203 2.111-3.65.259-6.995-1.738-3.14-4.364-7.883 1.539-12.226a2.228 2.228 0 0 1 2.64 3.591c-2.623 1.929-2.154 3.091-.28 6.477 1.762 3.184 4.425 7.995-1.376 12.633-.41.327-.901.488-1.388.488zM49.016 25.133a2.229 2.229 0 0 1-1.502-3.874c2.896-2.64 2.24-3.637.483-6.298-1.85-2.804-4.644-7.042.96-12.773a2.228 2.228 0 1 1 3.187 3.115c-3.093 3.163-2.201 4.514-.426 7.204 1.796 2.724 4.51 6.838-1.202 12.046a2.22 2.22 0 0 1-1.5.58z"/></svg>