<svg xmlns="http://www.w3.org/2000/svg" xmlns:xlink="http://www.w3.org/1999/xlink" width="512" height="512"><defs><path id="a" d="M.001 508.412h506.642V1.352H.001v507.06z"/><path id="c" d="M0 .404v171.885h94.723V.404H0z"/></defs><g fill="none" fill-rule="evenodd"><path fill="#FEFEFE" d="M253.324 499.266c133.626 0 241.952-108.413 241.952-242.148S386.95 14.97 253.324 14.97c-133.627 0-241.952 108.413-241.952 242.148s108.325 242.148 241.952 242.148"/><path fill="#4C4C4C" d="m349.383 34.853 15.544 80.207 92.024 11.352c-25.848-40.255-63.25-72.346-107.568-91.56M455.049 390.795c25.4-38.313 40.223-84.253 40.223-133.675 0-5.198-.22-10.335-.538-15.45l-71.439 52.26 31.754 96.865ZM340.698 482.922l-85.677-59.386L173.46 485.7a241.189 241.189 0 0 0 79.862 13.568c30.821 0 60.263-5.828 87.376-16.345"/><path fill="#010202" d="M389.233 56.314c25.378 38.306 40.193 84.222 40.193 133.63 0 133.734-108.325 242.147-241.952 242.147-49.36 0-95.246-14.827-133.513-40.232 43.324 65.387 117.492 108.526 201.752 108.526 133.627 0 241.952-108.413 241.952-242.148 0-84.335-43.097-158.563-108.432-201.923" opacity=".3"/><g transform="translate(0 2.236)"><mask id="b" fill="#fff"><use xlink:href="#a"/></mask><path fill="#2E2E30" d="M253.326 24.117c-127.144 0-230.579 103.519-230.579 230.766 0 127.24 103.435 230.766 230.579 230.766s230.571-103.527 230.571-230.766c0-127.247-103.427-230.766-230.571-230.766m0 484.296C113.641 508.413.001 394.673.001 254.883 0 115.085 113.64 1.353 253.326 1.353s253.318 113.732 253.318 253.53c0 139.79-113.633 253.53-253.318 253.53" mask="url(#b)"/></g><path fill="#4C4C4C" d="m253.324 347.048-94.481-68.696 36.091-111.16h116.779l36.091 111.16z"/><path fill="#2E2E30" d="m172.219 273.997 81.105 58.976 81.114-58.976-30.98-95.422H203.191l-30.973 95.422Zm81.105 84.435c-2.342 0-4.693-.729-6.687-2.17l-94.48-68.705a11.398 11.398 0 0 1-4.125-12.733l36.076-111.152a11.39 11.39 0 0 1 10.82-7.861h116.786c4.928 0 9.296 3.171 10.82 7.86l36.09 111.153a11.416 11.416 0 0 1-4.132 12.733l-94.48 68.704a11.4 11.4 0 0 1-6.688 2.17Z"/><path fill="#4C4C4C" d="M171.33 29.26c-47.994 17.301-88.923 49.354-117.37 90.695l98.453-8.636L171.33 29.26Z"/><path fill="#2E2E30" d="M155.277 48.247c-29.07 13.75-55.288 33.692-76.427 58.096l64.334-5.638 12.093-52.458Zm-101.32 83.091c-4.025 0-7.786-2.14-9.825-5.653a11.389 11.389 0 0 1 .454-12.186c30.336-44.065 72.834-76.9 122.883-94.944a11.355 11.355 0 0 1 11.411 2.193 11.408 11.408 0 0 1 3.534 11.07l-18.918 82.06a11.393 11.393 0 0 1-10.091 8.78l-98.454 8.635a11 11 0 0 1-.993.045ZM374.514 104.777l57.98 7.148c-18.705-23.151-41.596-42.38-67.595-56.767l9.615 49.62Zm82.44 33.024c-.455 0-.925-.03-1.396-.09l-92.023-11.353a11.372 11.372 0 0 1-9.774-9.128l-15.543-80.208c-.804-4.15.758-8.4 4.041-11.04a11.368 11.368 0 0 1 11.646-1.572c46.297 20.071 85.238 53.217 112.617 95.855a11.405 11.405 0 0 1 .06 12.21 11.377 11.377 0 0 1-9.628 5.326ZM198.149 481.192c38.426 9.485 79.37 8.832 117.393-1.852l-60.21-41.743-57.183 43.595Zm55.175 29.457c-28.562 0-56.7-4.78-83.616-14.205a11.382 11.382 0 0 1-7.476-8.97 11.378 11.378 0 0 1 4.337-10.835l81.553-62.163c3.92-2.997 9.311-3.104 13.368-.304l85.685 59.394a11.407 11.407 0 0 1 4.814 10.699 11.377 11.377 0 0 1-7.18 9.273c-29.267 11.352-60.042 17.111-91.485 17.111Z"/><path fill="#4C4C4C" d="m83.352 293.93-71.438-52.26c-.326 5.115-.539 10.252-.539 15.45 0 49.422 14.823 95.362 40.223 133.675l31.754-96.864Z"/><g transform="translate(0 229.883)"><mask id="d" fill="#fff"><use xlink:href="#c"/></mask><path fill="#2E2E30" d="M22.843 33.88c.993 34.936 9.803 68.856 25.779 99.603l21.35-65.122-47.13-34.481ZM51.6 172.29a11.365 11.365 0 0 1-9.477-5.092C14.563 125.644-.002 77.247-.002 27.233c0-5.434.235-10.806.568-16.148a11.39 11.39 0 0 1 6.521-9.6 11.321 11.321 0 0 1 11.532 1.116l71.439 52.26a11.36 11.36 0 0 1 4.094 12.733l-31.746 96.864a11.392 11.392 0 0 1-9.28 7.733c-.509.06-1.024.098-1.525.098Z" mask="url(#d)"/></g><path fill="#FEFEFE" d="m194.931 167.19-40.087-52.58"/><path fill="#2E2E30" d="M194.936 178.574c-3.428 0-6.81-1.54-9.046-4.477l-40.079-52.58c-3.814-5-2.85-12.14 2.138-15.95 5.012-3.817 12.132-2.853 15.938 2.148l40.079 52.571c3.814 5 2.85 12.141-2.138 15.95a11.301 11.301 0 0 1-6.892 2.338"/><path fill="#FEFEFE" d="m311.716 167.19 53.21-52.124"/><path fill="#2E2E30" d="M311.717 178.574a11.303 11.303 0 0 1-8.128-3.423c-4.39-4.484-4.322-11.693.175-16.094l53.21-52.124c4.474-4.401 11.685-4.325 16.082.167 4.39 4.492 4.314 11.701-.182 16.095l-53.203 52.13a11.333 11.333 0 0 1-7.954 3.249"/><path fill="#FEFEFE" d="m158.843 278.348-75.488 15.579"/><path fill="#2E2E30" d="M83.336 305.313c-5.277 0-10.016-3.703-11.123-9.083-1.273-6.162 2.692-12.18 8.841-13.446l75.495-15.579c6.096-1.29 12.17 2.686 13.435 8.848 1.274 6.154-2.691 12.171-8.84 13.439l-75.495 15.586c-.774.16-1.547.235-2.313.235M436.674 298.236l21.35 65.123c15.976-30.74 24.787-64.66 25.78-99.596l-47.13 34.473Zm18.379 103.936c-.508 0-1.016-.038-1.524-.098a11.382 11.382 0 0 1-9.28-7.733l-31.755-96.863a11.349 11.349 0 0 1 4.095-12.734l71.43-52.26a11.394 11.394 0 0 1 11.533-1.123 11.4 11.4 0 0 1 6.528 9.592c.38 5.941.569 11.238.569 16.163 0 50.006-14.565 98.404-42.119 139.965a11.365 11.365 0 0 1-9.477 5.091Z"/><path fill="#FEFEFE" d="m347.804 278.348 75.487 15.579"/><path fill="#2E2E30" d="M423.309 305.313c-.766 0-1.54-.076-2.313-.235l-75.487-15.586c-6.15-1.268-10.115-7.285-8.84-13.44 1.265-6.16 7.331-10.13 13.435-8.847l75.487 15.579c6.15 1.267 10.115 7.284 8.84 13.446-1.106 5.38-5.845 9.083-11.122 9.083"/><path fill="#FEFEFE" d="M253.324 347.048v76.482"/><path fill="#2E2E30" d="M253.326 434.913c-6.278 0-11.373-5.099-11.373-11.382v-76.482c0-6.283 5.095-11.382 11.373-11.382s11.373 5.1 11.373 11.382v76.482c0 6.283-5.095 11.382-11.373 11.382"/></g></svg>