<svg xmlns="http://www.w3.org/2000/svg" viewBox="0 0 64 64"><path d="M7 24h50v34.045A2.955 2.955 0 0 1 54.045 61H9.955A2.955 2.955 0 0 1 7 58.045V24Z" style="fill:#e5e6eb"/><path d="M7 24h50v8H7z" style="fill:#cceaff"/><path d="m22 24 8 8h10l-8-8H22zM7 24v8h13l-8-8H7zM57 24H42l8 8h7v-8z" style="fill:#444"/><path d="M5.113 9.666h50v8h-50z" style="fill:#cceaff" transform="rotate(-15 30.111 13.666)"/><path d="m27.146 10.32-5.657 9.798 9.659-2.588 5.657-9.798-9.659 2.588zM4.929 16.273 7 24l4.83-1.294 5.657-9.798-12.558 3.365zM53.226 3.332l-6.762 1.811-5.657 9.798 14.489-3.882-2.07-7.727z" style="fill:#444"/><path d="M24.966 42H29v8h-4.034A1.966 1.966 0 0 1 23 48.034v-4.068A1.966 1.966 0 0 1 24.966 42Z" style="fill:#0468ad"/><path d="m38 55-10-5v-8l10-5v18z" style="fill:#027de5"/><path d="M41 38.526h4v2h-4z" style="fill:#027de5" transform="rotate(-15.231 43 39.524)"/><path d="M41 45h4v2h-4z" style="fill:#027de5"/><path d="M42 50.474h2v4h-2z" style="fill:#027de5" transform="rotate(-74.749 43 52.474)"/><path d="M9 40v-6h6l-6 6z" style="fill:#fff"/><path d="M57 23H14.6l40.96-10.975a1 1 0 0 0 .707-1.225l-2.076-7.727a1 1 0 0 0-1.224-.707L4.671 15.307a1 1 0 0 0-.707 1.224L6 24.131v33.914A3.959 3.959 0 0 0 9.955 62h44.09A3.959 3.959 0 0 0 58 58.045V24a1 1 0 0 0-1-1Zm-1 8h-5.586l-6-6H56ZM8 25h3.586l6 6H8Zm12.414 6-6-6h7.172l6 6Zm10 0-6-6h7.172l6 6Zm10 0-6-6h7.172l6 6Zm-9.925-14.329-6.927 1.856 4.243-7.349 6.927-1.856Zm6.975-8.081 6.927-1.856-4.243 7.349-6.927 1.856ZM20.83 19.259l-6.93 1.856 4.242-7.349 6.927-1.856Zm33.241-8.907-11.19 3L47.123 6l5.4-1.446ZM15.413 14.5l-4.242 7.348-3.464.928-1.553-5.8ZM54.045 60H9.955A1.957 1.957 0 0 1 8 58.045V33h48v25.045A1.957 1.957 0 0 1 54.045 60Z"/></svg>