<svg xmlns="http://www.w3.org/2000/svg" xml:space="preserve" viewBox="0 0 64 64"><path fill="#FFCCBC" d="M14 58h9.7c1.6 0 3.1.5 4.3 1.5 2 1.6 4.5 2.5 7 2.5h15c3.9 0 7-3.1 7-7 0-.5-.1-.9-.3-1.3C58.6 53 60 51.2 60 49c0-1.3-.5-2.4-1.3-3.3C60.6 45 62 43.2 62 41c0-1.4-.6-2.7-1.6-3.6 1.5-.9 2.6-2.5 2.6-4.4 0-2.8-2.2-5-5-5H43.3l3.3-13.8c.3-1 .4-2.1.4-3.2 0-2.7-.9-5.4-2.7-7.5-.8-1-2.1-1.4-3.3-.9-1.2.4-2 1.5-2 2.8V7c0 2.4-.6 4.7-1.9 6.7L32.7 21c-.7 1.2-1.7 2.2-2.9 2.9-1.4.9-2.5 2.1-3.3 3.4-1.4 2.4-3.2 4.5-5.3 6-1.5 1.1-3.3 1.7-5.2 1.7h-2v23z"/><path fill="#FFAB91" d="M16.9 58c-1.2-4.7-1.9-9.6-1.9-14.7 0-2.8.2-5.6.6-8.3H14v23h2.9z"/><g fill="#FFAB91"><path d="M56.7 53.7 51 52v2zM58.7 45.7 53 44v2zM60.4 37.4 53 36v2zM43.7 26.2c-2.1.9-4.3 1.6-6.7 1.8h6.3l.4-1.8z"/></g><path fill="#E1BEE7" d="M13 61H1V33h12c1.1 0 2 .9 2 2v24c0 1.1-.9 2-2 2z"/><path fill="#AB47BC" d="M6 50.5h1v3H6z"/><circle cx="6.5" cy="55.5" r="2.5" fill="#FFF"/></svg>